HIERARCHY
ROOT Hips
{
	OFFSET 0.000000 100.481300 0.000000
	CHANNELS 6 Xposition Yposition Zposition Xrotation Yrotation Zrotation
	JOINT Spine
	{
		OFFSET -0.279200 12.230698 -2.892100
		CHANNELS 3 Xrotation Yrotation Zrotation
		JOINT Spine1
		{
			OFFSET -0.325700 14.269203 -3.374200
			CHANNELS 3 Xrotation Yrotation Zrotation
			JOINT Spine2
			{
				OFFSET -0.372300 16.307602 -0.352600
				CHANNELS 3 Xrotation Yrotation Zrotation
				JOINT Neck
				{
					OFFSET -0.418800 17.814194 8.416900
					CHANNELS 3 Xrotation Yrotation Zrotation
					JOINT Head
					{
						OFFSET 0.000000 7.031097 3.806800
						CHANNELS 3 Xrotation Yrotation Zrotation
						JOINT HeadTop_End
						{
							OFFSET 0.000000 24.646606 12.978600
							CHANNELS 3 Xrotation Yrotation Zrotation
							End Site
							{
								OFFSET 0.000000 27.854965 0.000000
							}
						}
					}
				}
				JOINT LeftShoulder
				{
					OFFSET 16.952999 14.495407 -7.737500
					CHANNELS 3 Xrotation Yrotation Zrotation
					JOINT LeftArm
					{
						OFFSET 9.308998 -2.777710 0.208600
						CHANNELS 3 Xrotation Yrotation Zrotation
						JOINT LeftForeArm
						{
							OFFSET 29.972298 0.000000 0.000000
							CHANNELS 3 Xrotation Yrotation Zrotation
							JOINT LeftHand
							{
								OFFSET 26.026505 0.000000 0.000000
								CHANNELS 3 Xrotation Yrotation Zrotation
								JOINT LeftHandThumb1
								{
									OFFSET 12.240501 -7.147949 9.207150
									CHANNELS 3 Xrotation Yrotation Zrotation
									JOINT LeftHandThumb2
									{
										OFFSET 4.138618 -2.389435 2.389433
										CHANNELS 3 Xrotation Yrotation Zrotation
										JOINT LeftHandThumb3
										{
											OFFSET 2.726913 -1.574387 1.574386
											CHANNELS 3 Xrotation Yrotation Zrotation
											JOINT LeftHandThumb4
											{
												OFFSET 3.941010 -2.275345 2.275342
												CHANNELS 3 Xrotation Yrotation Zrotation
												End Site
												{
													OFFSET -0.005798 5.087799 0.009903
												}
											}
										}
									}
								}
								JOINT LeftHandIndex1
								{
									OFFSET 24.424698 -1.985611 5.953459
									CHANNELS 3 Xrotation Yrotation Zrotation
									JOINT LeftHandIndex2
									{
										OFFSET 6.426697 0.000000 0.000000
										CHANNELS 3 Xrotation Yrotation Zrotation
										JOINT LeftHandIndex3
										{
											OFFSET 5.337898 0.000000 0.000000
											CHANNELS 3 Xrotation Yrotation Zrotation
											JOINT LeftHandIndex4
											{
												OFFSET 4.409401 0.000000 0.000000
												CHANNELS 3 Xrotation Yrotation Zrotation
												End Site
												{
													OFFSET 0.000000 4.409363 0.014373
												}
											}
										}
									}
								}
								JOINT LeftHandMiddle1
								{
									OFFSET 23.810104 0.000000 0.000000
									CHANNELS 3 Xrotation Yrotation Zrotation
									JOINT LeftHandMiddle2
									{
										OFFSET 7.176498 0.000000 0.000000
										CHANNELS 3 Xrotation Yrotation Zrotation
										JOINT LeftHandMiddle3
										{
											OFFSET 6.774902 0.000000 0.000000
											CHANNELS 3 Xrotation Yrotation Zrotation
											JOINT LeftHandMiddle4
											{
												OFFSET 5.403328 0.000000 0.000000
												CHANNELS 3 Xrotation Yrotation Zrotation
												End Site
												{
													OFFSET -0.027702 5.403244 0.017414
												}
											}
										}
									}
								}
								JOINT LeftHandRing1
								{
									OFFSET 22.908401 -0.839279 -6.020567
									CHANNELS 3 Xrotation Yrotation Zrotation
									JOINT LeftHandRing2
									{
										OFFSET 6.337502 0.000000 0.000000
										CHANNELS 3 Xrotation Yrotation Zrotation
										JOINT LeftHandRing3
										{
											OFFSET 5.779297 0.000000 0.000000
											CHANNELS 3 Xrotation Yrotation Zrotation
											JOINT LeftHandRing4
											{
												OFFSET 4.965698 0.000000 0.000000
												CHANNELS 3 Xrotation Yrotation Zrotation
												End Site
												{
													OFFSET 0.000000 4.965668 0.016186
												}
											}
										}
									}
								}
								JOINT LeftHandPinky1
								{
									OFFSET 20.037003 -1.530319 -10.950146
									CHANNELS 3 Xrotation Yrotation Zrotation
									JOINT LeftHandPinky2
									{
										OFFSET 5.254700 0.000000 0.000000
										CHANNELS 3 Xrotation Yrotation Zrotation
										JOINT LeftHandPinky3
										{
											OFFSET 4.810204 0.000000 0.000000
											CHANNELS 3 Xrotation Yrotation Zrotation
											JOINT LeftHandPinky4
											{
												OFFSET 3.647202 0.000000 0.000000
												CHANNELS 3 Xrotation Yrotation Zrotation
												End Site
												{
													OFFSET 0.000000 3.647186 0.011889
												}
											}
										}
									}
								}
							}
						}
					}
				}
				JOINT RightShoulder
				{
					OFFSET -15.141001 14.495407 -7.737500
					CHANNELS 3 Xrotation Yrotation Zrotation
					JOINT RightArm
					{
						OFFSET -9.308998 -2.777710 0.208500
						CHANNELS 3 Xrotation Yrotation Zrotation
						JOINT RightForeArm
						{
							OFFSET -29.972300 0.000000 0.000000
							CHANNELS 3 Xrotation Yrotation Zrotation
							JOINT RightHand
							{
								OFFSET -26.026505 0.000000 0.000000
								CHANNELS 3 Xrotation Yrotation Zrotation
								JOINT RightHandThumb1
								{
									OFFSET -12.240601 -7.148026 9.207092
									CHANNELS 3 Xrotation Yrotation Zrotation
									JOINT RightHandThumb2
									{
										OFFSET -4.138618 -2.389435 2.389433
										CHANNELS 3 Xrotation Yrotation Zrotation
										JOINT RightHandThumb3
										{
											OFFSET -2.726974 -1.574417 1.574421
											CHANNELS 3 Xrotation Yrotation Zrotation
											JOINT RightHandThumb4
											{
												OFFSET -3.941010 -2.275345 2.275343
												CHANNELS 3 Xrotation Yrotation Zrotation
												End Site
												{
													OFFSET 0.005814 5.087799 0.009927
												}
											}
										}
									}
								}
								JOINT RightHandIndex1
								{
									OFFSET -24.424698 -1.985657 5.953444
									CHANNELS 3 Xrotation Yrotation Zrotation
									JOINT RightHandIndex2
									{
										OFFSET -6.426697 0.000000 0.000000
										CHANNELS 3 Xrotation Yrotation Zrotation
										JOINT RightHandIndex3
										{
											OFFSET -5.337898 0.000000 0.000000
											CHANNELS 3 Xrotation Yrotation Zrotation
											JOINT RightHandIndex4
											{
												OFFSET -4.409401 0.000000 0.000000
												CHANNELS 3 Xrotation Yrotation Zrotation
												End Site
												{
													OFFSET 0.000000 4.409363 0.014408
												}
											}
										}
									}
								}
								JOINT RightHandMiddle1
								{
									OFFSET -23.810097 0.000000 0.000000
									CHANNELS 3 Xrotation Yrotation Zrotation
									JOINT RightHandMiddle2
									{
										OFFSET -7.176498 0.000000 0.000000
										CHANNELS 3 Xrotation Yrotation Zrotation
										JOINT RightHandMiddle3
										{
											OFFSET -6.774902 0.000000 0.000000
											CHANNELS 3 Xrotation Yrotation Zrotation
											JOINT RightHandMiddle4
											{
												OFFSET -5.403328 0.000000 0.000000
												CHANNELS 3 Xrotation Yrotation Zrotation
												End Site
												{
													OFFSET 0.027702 5.403244 0.017457
												}
											}
										}
									}
								}
								JOINT RightHandRing1
								{
									OFFSET -22.908302 -0.839325 -6.020576
									CHANNELS 3 Xrotation Yrotation Zrotation
									JOINT RightHandRing2
									{
										OFFSET -6.337502 0.000000 0.000000
										CHANNELS 3 Xrotation Yrotation Zrotation
										JOINT RightHandRing3
										{
											OFFSET -5.779297 0.000000 0.000000
											CHANNELS 3 Xrotation Yrotation Zrotation
											JOINT RightHandRing4
											{
												OFFSET -4.965698 0.000000 0.000000
												CHANNELS 3 Xrotation Yrotation Zrotation
												End Site
												{
													OFFSET 0.000000 4.965668 0.016226
												}
											}
										}
									}
								}
								JOINT RightHandPinky1
								{
									OFFSET -20.037003 -1.530334 -10.950259
									CHANNELS 3 Xrotation Yrotation Zrotation
									JOINT RightHandPinky2
									{
										OFFSET -5.254700 0.000000 0.000000
										CHANNELS 3 Xrotation Yrotation Zrotation
										JOINT RightHandPinky3
										{
											OFFSET -4.810204 0.000000 0.000000
											CHANNELS 3 Xrotation Yrotation Zrotation
											JOINT RightHandPinky4
											{
												OFFSET -3.647202 0.000000 0.000000
												CHANNELS 3 Xrotation Yrotation Zrotation
												End Site
												{
													OFFSET 0.000000 3.647186 0.011917
												}
											}
										}
									}
								}
							}
						}
					}
				}
			}
		}
	}
	JOINT LeftUpLeg
	{
		OFFSET 15.427100 -6.655098 0.678600
		CHANNELS 3 Xrotation Yrotation Zrotation
		JOINT LeftLeg
		{
			OFFSET 4.081073 -39.591068 13.024000
			CHANNELS 3 Xrotation Yrotation Zrotation
			JOINT LeftFoot
			{
				OFFSET -4.081074 -37.707932 -15.979700
				CHANNELS 3 Xrotation Yrotation Zrotation
				JOINT LeftToeBase
				{
					OFFSET 5.346399 -15.068900 20.645000
					CHANNELS 3 Xrotation Yrotation Zrotation
					JOINT LeftToe_End
					{
						OFFSET 2.754700 0.931300 11.300900
						CHANNELS 3 Xrotation Yrotation Zrotation
						End Site
						{
							OFFSET 0.000000 11.669021 0.000000
						}
					}
				}
			}
		}
	}
	JOINT RightUpLeg
	{
		OFFSET -15.569500 -6.655098 0.678600
		CHANNELS 3 Xrotation Yrotation Zrotation
		JOINT RightLeg
		{
			OFFSET -4.081825 -39.591045 13.023800
			CHANNELS 3 Xrotation Yrotation Zrotation
			JOINT RightFoot
			{
				OFFSET 4.081824 -37.707954 -15.979600
				CHANNELS 3 Xrotation Yrotation Zrotation
				JOINT RightToeBase
				{
					OFFSET -5.346400 -15.068900 20.645000
					CHANNELS 3 Xrotation Yrotation Zrotation
					JOINT RightToe_End
					{
						OFFSET -2.754700 0.931300 11.300900
						CHANNELS 3 Xrotation Yrotation Zrotation
						End Site
						{
							OFFSET 0.000000 11.669021 0.000000
						}
					}
				}
			}
		}
	}
}
MOTION
Frames: 5
Frame Time: 0.033333
0.368555 76.757523 -1.897385 20.138721 -5.161253 -0.547317 23.971590 6.574972 2.842817 16.564249 -0.551257 5.070860 16.701163 -0.320798 4.534728 -48.811622 20.365527 -10.892652 -4.935788 -15.076734 8.891559 0.000002 -0.000000 0.000000 2.757053 -1.052666 -9.776348 -9.815028 -27.026608 -31.840593 0.000259 -47.851643 0.001193 -57.262476 -23.488788 0.819236 -23.875782 -11.526084 4.402598 5.472960 24.984190 10.596875 3.739236 21.657391 5.503687 0.000001 -0.000000 -0.000003 0.170082 6.860870 3.679107 0.528378 2.333587 -25.512594 -0.198492 -0.056975 -17.594917 -0.000000 0.000000 0.000000 0.170080 6.860872 3.679098 0.528379 2.333592 -25.512592 0.123707 1.151396 -12.264425 0.000000 -0.000001 0.000000 0.170082 6.860870 3.679106 0.528379 2.333588 -25.512597 0.123709 1.151394 -12.264414 0.000000 -0.000000 -0.000002 0.170081 6.860870 3.679105 0.528380 2.333594 -25.512590 0.123709 1.151393 -12.264421 -0.000001 -0.000000 0.000001 1.161320 2.168088 6.230496 -39.216047 38.843617 28.448049 0.000205 41.765067 -0.001152 -45.135536 11.903515 10.697653 27.702573 18.251111 -4.658992 -6.079034 -22.069239 -26.305080 -3.625877 -12.927616 -15.923806 -0.000000 -0.000003 0.000004 0.170091 -6.860866 -3.679122 0.528369 -2.333595 25.512606 -0.198495 0.056972 17.594911 -0.000002 -0.000002 -0.000003 0.170091 -6.860866 -3.679122 0.528369 -2.333599 25.512602 0.123711 -1.151397 12.264390 -0.000001 -0.000002 -0.000001 0.170090 -6.860867 -3.679118 0.528370 -2.333595 25.512602 0.123708 -1.151395 12.264400 -0.000002 -0.000002 -0.000004 0.170091 -6.860866 -3.679122 0.528370 -2.333602 25.512604 0.123708 -1.151396 12.264400 -0.000002 0.000004 0.000001 -57.253361 5.102336 8.415047 71.380497 4.286069 0.251812 -10.446214 0.726494 -4.175640 -24.171382 0.810471 -1.176910 0.000000 0.000001 -0.000000 -36.892751 -16.325641 -0.039620 53.836606 19.964223 1.250300 -32.291075 9.272141 -14.816022 -6.337556 0.002424 0.000002 -0.000000 0.000000 0.000000 
0.158148 80.270645 6.163778 21.442464 -7.175754 1.074797 23.326155 8.561068 0.342594 15.856153 0.200911 3.946397 15.992012 0.336878 3.539987 -46.537825 18.080844 -9.601280 -7.775353 -16.055927 6.963735 0.000002 -0.000000 -0.000001 3.161301 -3.172017 -8.413975 -7.613630 -20.795138 -38.414206 0.000276 -50.722481 0.001190 -57.262472 -23.488788 0.819233 -23.875782 -11.526089 4.402598 5.472968 24.984193 10.596874 3.739237 21.657393 5.503685 0.000000 0.000003 0.000001 0.168262 6.890177 3.369002 0.533654 2.344611 -25.641884 -0.198491 -0.056974 -17.594912 -0.000000 0.000000 -0.000001 0.168263 6.890178 3.369005 0.533654 2.344611 -25.641888 0.123708 1.151396 -12.264422 0.000000 0.000000 -0.000000 0.168262 6.890177 3.369001 0.533654 2.344612 -25.641886 0.123709 1.151393 -12.264414 0.000000 0.000000 0.000001 0.168262 6.890177 3.369000 0.533655 2.344615 -25.641883 0.123709 1.151393 -12.264423 0.000000 -0.000001 -0.000001 1.352900 3.380262 3.972469 -40.395112 40.121709 25.835988 0.000227 42.814030 -0.001167 -41.105434 13.698621 9.897812 27.702573 18.251109 -4.658992 -6.079033 -22.069243 -26.305079 -3.625872 -12.927614 -15.923804 -0.000001 0.000000 -0.000001 0.168273 -6.890174 -3.369015 0.533660 -2.344601 25.641881 -0.198491 0.056972 17.594911 -0.000000 0.000000 -0.000001 0.168272 -6.890174 -3.369015 0.533659 -2.344604 25.641879 0.123712 -1.151395 12.264386 -0.000000 0.000001 0.000000 0.168273 -6.890174 -3.369020 0.533656 -2.344608 25.641877 0.123711 -1.151394 12.264401 -0.000004 0.000003 0.000001 0.168273 -6.890174 -3.369015 0.533660 -2.344605 25.641879 0.123707 -1.151395 12.264404 0.000001 -0.000002 -0.000002 -54.258172 4.624497 8.154022 61.703745 5.237931 -1.074327 -15.681290 0.711118 -6.681378 -14.264433 0.235509 -1.046634 -0.000000 0.000001 -0.000000 -28.107902 -18.077380 -0.752723 44.806256 24.159761 1.241498 -31.663487 9.543417 -15.364538 -10.153941 0.002426 -0.000005 -0.000000 0.000000 0.000000 
0.136445 83.079895 15.155434 23.015448 -9.150941 2.231321 22.806517 10.515151 -2.211938 15.142161 0.843811 2.671624 15.243980 0.866859 2.408799 -48.225169 15.725527 -7.297897 -7.457055 -16.747955 5.451189 0.000000 -0.000000 -0.000001 3.693537 -4.765503 -6.594665 -5.210697 -14.844487 -44.960000 0.000347 -53.795994 0.001255 -57.262479 -23.488787 0.819233 -23.875783 -11.526086 4.402602 5.472961 24.984193 10.596878 3.739241 21.657393 5.503684 0.000003 -0.000000 -0.000000 0.178687 6.746689 4.888265 0.508037 2.290523 -25.008427 -0.198491 -0.056974 -17.594912 0.000001 0.000000 -0.000000 0.178691 6.746687 4.888271 0.508034 2.290525 -25.008430 0.123710 1.151395 -12.264426 -0.000000 -0.000001 -0.000004 0.178687 6.746689 4.888265 0.508038 2.290523 -25.008425 0.123708 1.151393 -12.264413 0.000001 -0.000000 -0.000003 0.178687 6.746688 4.888263 0.508039 2.290526 -25.008425 0.123709 1.151394 -12.264423 -0.000001 -0.000001 0.000000 1.689937 4.664121 1.123133 -40.229138 40.317558 23.317754 0.000260 44.920751 -0.001202 -36.848980 15.528676 8.517478 27.702571 18.251112 -4.658993 -6.079032 -22.069239 -26.305075 -3.625876 -12.927612 -15.923804 -0.000000 -0.000001 0.000002 0.178681 -6.746679 -4.888255 0.508053 -2.290523 25.008432 -0.198494 0.056976 17.594914 -0.000003 -0.000001 -0.000001 0.178682 -6.746679 -4.888256 0.508051 -2.290523 25.008430 0.123714 -1.151398 12.264382 -0.000002 -0.000001 0.000000 0.178681 -6.746679 -4.888255 0.508050 -2.290531 25.008432 0.123711 -1.151394 12.264402 0.000004 0.000001 -0.000000 0.178681 -6.746679 -4.888257 0.508052 -2.290524 25.008434 0.123712 -1.151395 12.264399 0.000001 -0.000003 -0.000001 -58.560061 2.955912 8.963804 57.091256 5.701582 -2.253170 -21.955501 2.139497 -8.499087 7.588256 -0.000001 0.000003 0.000000 -0.000000 0.000000 -20.371693 -19.367954 -1.786346 36.626862 25.122204 0.855624 -29.211158 11.052531 -13.201534 -14.571387 0.002424 0.000001 -0.000000 0.000000 0.000000 
0.255638 86.287498 24.922626 25.172799 -10.722260 2.821793 22.355508 12.107274 -4.682106 14.497524 1.428005 1.345093 14.555340 1.339801 1.229932 -50.934442 12.399542 -4.506477 -6.368198 -16.712395 3.892055 0.000001 -0.000000 0.000000 4.386734 -5.996445 -4.225965 -2.396754 -9.470924 -51.177723 -0.000114 -56.142608 0.000936 -57.262476 -23.488788 0.819233 -23.875787 -11.526089 4.402601 5.472961 24.984192 10.596871 3.739238 21.657394 5.503690 0.000000 -0.000003 -0.000001 0.206464 6.494011 7.572526 0.464247 2.194254 -23.888961 -0.198489 -0.056974 -17.594912 0.000000 0.000000 -0.000002 0.206468 6.494010 7.572528 0.464246 2.194255 -23.888961 0.123709 1.151395 -12.264424 -0.000001 0.000000 0.000000 0.206464 6.494011 7.572527 0.464245 2.194255 -23.888961 0.123711 1.151393 -12.264416 0.000002 -0.000000 0.000000 0.206465 6.494012 7.572525 0.464249 2.194257 -23.888961 0.123706 1.151393 -12.264424 0.000002 0.000000 -0.000001 2.131704 5.675583 -2.466789 -37.430967 37.215379 22.264733 -0.003481 49.167895 0.000841 -32.284989 17.126312 6.315117 27.702573 18.251109 -4.658991 -6.079031 -22.069238 -26.305087 -3.625873 -12.927615 -15.923804 0.000003 0.000002 -0.000002 0.206463 -6.494037 -7.572542 0.464228 -2.194260 23.888979 -0.198497 0.056975 17.594911 0.000002 -0.000001 -0.000002 0.206464 -6.494037 -7.572541 0.464229 -2.194264 23.888984 0.123709 -1.151398 12.264385 0.000001 0.000002 0.000000 0.206456 -6.494033 -7.572536 0.464235 -2.194271 23.888981 0.123711 -1.151393 12.264402 -0.000002 -0.000001 0.000001 0.206463 -6.494037 -7.572541 0.464228 -2.194266 23.888979 0.123705 -1.151395 12.264397 0.000001 0.000000 -0.000001 -65.201327 0.486453 10.365136 51.108598 5.238410 -2.724689 -24.740362 4.937084 -8.133594 9.874811 -0.088537 0.920705 -0.000000 -0.000000 0.000001 -11.488500 -19.806869 -1.545776 24.381508 25.248518 0.654651 -24.634115 11.259428 -9.700603 -21.403434 0.008214 0.168069 0.000000 -0.000000 0.000000 
0.462098 89.896950 35.026283 28.227020 -11.702277 2.887305 19.477089 13.489665 -6.137524 13.066763 2.057373 0.310242 13.098462 1.934146 0.289223 -46.977604 8.877415 -2.399143 -10.175797 -16.501329 1.296292 0.000001 -0.000000 -0.000000 5.235257 -6.996897 -1.314980 0.756357 -5.085508 -56.582441 0.000391 -57.433346 0.001290 -57.262476 -23.488790 0.819231 -23.875780 -11.526084 4.402598 5.472969 24.984190 10.596875 3.739237 21.657394 5.503684 0.000002 0.000001 -0.000000 0.272144 6.109288 11.689868 0.400699 2.044882 -22.171125 -0.198492 -0.056974 -17.594912 0.000002 -0.000000 -0.000000 0.272144 6.109287 11.689869 0.400699 2.044883 -22.171125 0.123709 1.151395 -12.264423 0.000001 -0.000000 0.000000 0.272144 6.109288 11.689869 0.400699 2.044883 -22.171122 0.123707 1.151393 -12.264417 0.000001 0.000000 -0.000000 0.272145 6.109290 11.689868 0.400698 2.044886 -22.171122 0.123708 1.151394 -12.264423 0.000003 0.000000 -0.000000 2.199610 5.593291 -4.372889 -36.019262 32.639907 25.027980 0.000305 52.037702 -0.001236 -28.004483 17.514948 5.168040 27.702573 18.251114 -4.658992 -6.079034 -22.069238 -26.305079 -3.625873 -12.927610 -15.923806 0.000004 -0.000003 0.000000 0.272155 -6.109283 -11.689880 0.400689 -2.044892 22.171149 -0.198493 0.056970 17.594909 0.000001 -0.000002 -0.000002 0.272156 -6.109283 -11.689874 0.400687 -2.044892 22.171153 0.123712 -1.151401 12.264389 0.000001 -0.000000 -0.000000 0.272161 -6.109284 -11.689888 0.400681 -2.044897 22.171161 0.123709 -1.151399 12.264399 0.000001 0.000001 -0.000001 0.272155 -6.109283 -11.689876 0.400686 -2.044896 22.171153 0.123707 -1.151396 12.264397 0.000001 -0.000001 0.000002 -70.646122 -2.108669 11.551138 44.392483 4.710891 -2.442501 -27.969662 8.180008 -7.117371 7.090956 -0.144881 2.099368 -0.000001 -0.000001 -0.000000 -3.461244 -18.414147 -1.152809 9.736564 25.704923 2.510957 -15.670081 8.922501 -3.979337 -25.225168 -0.059460 0.183136 -0.000000 0.000000 0.000000 
